PathFileType	4	(X/Y/Z)	/Users/niels/Desktop/University/Third Semester/Perception and Action/Exam/Gymnastics Motion Tracking/Code for Gym Tracking/Analyzed Data/Webcam_Backflip/id5_8_trajectory_Sports2D/id5_8_trajectory_Sports2D_px_person00.trc
DataRate	CameraRate	NumFrames	NumMarkers	Units	OrigDataRate	OrigDataStartFrame	OrigNumFrames
29.77777777777778	29.77777777777778	10	22	m	29.77777777777778	0	135
Frame#	Time	Hip			RHip			RKnee			RAnkle			RBigToe			RSmallToe			RHeel			LHip			LKnee			LAnkle			LBigToe			LSmallToe			LHeel			Neck			Head			Nose			RShoulder			RElbow			RWrist			LShoulder			LElbow			LWrist		
		X1	Y1	Z1	X2	Y2	Z2	X3	Y3	Z3	X4	Y4	Z4	X5	Y5	Z5	X6	Y6	Z6	X7	Y7	Z7	X8	Y8	Z8	X9	Y9	Z9	X10	Y10	Z10	X11	Y11	Z11	X12	Y12	Z12	X13	Y13	Z13	X14	Y14	Z14	X15	Y15	Z15	X16	Y16	Z16	X17	Y17	Z17	X18	Y18	Z18	X19	Y19	Z19	X20	Y20	Z20	X21	Y21	Z21	X22	Y22	Z22
0	0.0	1.3166640624999952	-1.0549374999999954	0.0	1.0961367187499993	-0.9895751953125	0.0	0.8876250000014806	-0.8451679687496432	0.0			0.0	0.531649658203125	-0.6760112304687499	0.0	0.8820671386718821	-0.6808527832031225	0.0			0.0	1.6133437500000862	-1.0019589843750123	0.0	2.0201527263001933	-0.8779813258786536	0.0			0.0	0.8820671386718751	-0.5317695312500003	0.0	0.7190950720500623	-0.6969831238661005	0.0	1.375857421875	-0.5512734375000002	0.0	1.2523314965164811	-0.8521763230320566	0.0	1.14528965190413	-0.3518815241229383	0.0	1.1388458183349321	-0.6054007272822585	0.0	0.9987971244919625	-1.046917936954302	0.0	0.27448393311283553	-1.054745187460043	0.0	0.7417298934411658	-0.999848348597928	0.0	1.7167038774187915	-0.9138664702158188	0.0	1.9016560310617858	-1.0307823757780452	0.0	0.7643013007211373	-1.0648665217999636	0.0
1	0.033582089552238806	1.3166640625000385	-1.054937500000055	0.0	1.0961367187499993	-0.9895751953125	0.0	0.8876250000013839	-0.8451679687496665	0.0			0.0	0.531649658203125	-0.6760112304687499	0.0	0.8820671386718828	-0.6808527832031221	0.0			0.0	1.613343750000191	-1.0019589843750267	0.0	2.0178233149462637	-0.8813499228562708	0.0			0.0	0.8820671386718751	-0.5317695312500003	0.0	0.7189960510954169	-0.6973968368150785	0.0	1.375857421875	-0.5512734375000002	0.0	1.1056240571691704	-0.8761161802740315	0.0	1.030307765691184	-0.4010545938794037	0.0	1.027745240757261	-0.6573929882946268	0.0	0.8398801874573937	-1.0369830968469735	0.0	0.2719105188145115	-1.0564756815521756	0.0	0.7428280605015245	-1.001062526198345	0.0	1.5155765465027828	-0.9321355134699624	0.0	1.660015345867756	-1.037225208309441	0.0	0.7731768825137774	-1.064969156376161	0.0
2	0.06716417910447761	1.316664062500118	-1.0549375000001628	0.0	1.0961367187499993	-0.9895751953125	0.0	0.887625000000245	-0.8451679687499407	0.0			0.0	0.531649658203125	-0.6760112304687499	0.0	0.8820671386718795	-0.6808527832031236	0.0			0.0	1.6133437500003198	-1.0019589843750443	0.0	2.0158957459319677	-0.8826068093926844	0.0			0.0	0.8820671386718751	-0.5317695312500003	0.0	0.718898844345514	-0.6978044437930432	0.0	1.375857421875	-0.5512734375000002	0.0	0.9869678864594675	-0.8962372527229647	0.0	0.9373531368478432	-0.4412509979437544	0.0	0.9382649341527273	-0.6999543744529727	0.0	0.7112248077446721	-1.0291166156740907	0.0	0.2691620658609979	-1.057961872983306	0.0	0.7437509651502058	-1.002082878181699	0.0	1.3532050390493542	-0.9475871855501434	0.0	1.4642887330307846	-1.0423910793543179	0.0	0.7810650457323307	-1.065060412084744	0.0
3	0.10074626865671642	1.3166640625002333	-1.0549375000003176	0.0	1.0961367187499993	-0.9895751953125	0.0	0.8876249999973261	-0.8451679687506435	0.0			0.0	0.531649658203125	-0.6760112304687499	0.0	0.8820671386718686	-0.6808527832031283	0.0			0.0	1.6133437500004226	-1.0019589843750583	0.0	2.014803287426993	-0.8808971150529848	0.0			0.0	0.8820671386718751	-0.5317695312500003	0.0	0.7188067827651065	-0.6981967725945557	0.0	1.375857421875	-0.5512734375000002	0.0	0.9056711128826869	-0.9112574464495764	0.0	0.8738379385338442	-0.46948387578586004	0.0	0.8775972628264003	-0.7300028692681784	0.0	0.6228402356284247	-1.024030188202935	0.0	0.26627270540474135	-1.0590295546402844	0.0	0.7443947677138423	-1.002794570150305	0.0	1.2423626115971491	-0.9592041430262194	0.0	1.329918873128441	-1.0458432297564484	0.0	0.7871773313204801	-1.0651312050050787	0.0
4	0.13432835820895522	1.3166640625003596	-1.0549375000004848	0.0	1.0961367187499993	-0.9895751953125	0.0	0.8876249999920032	-0.8451679687519251	0.0			0.0	0.531649658203125	-0.6760112304687499	0.0	0.8820671386718464	-0.6808527832031378	0.0			0.0	1.6133437500003949	-1.0019589843750545	0.0	2.0149130266051363	-0.8769787025224773	0.0			0.0	0.8820671386718751	-0.5317695312500003	0.0	0.7187249891394106	-0.6985598252958041	0.0	1.375857421875	-0.5512734375000002	0.0	0.85887775099627	-0.9212403406859754	0.0	0.8376773932172118	-0.48646676805935596	0.0	0.8434005388888361	-0.748325662628502	0.0	0.5714582096924792	-1.0215179521557916	0.0	0.26330785163084874	-1.0596335912775132	0.0	0.7447565651283208	-1.003194380737998	0.0	1.1787859199882826	-0.9668597875351425	0.0	1.2525063318966398	-1.047634082328499	0.0	0.7911727550351529	-1.065177626020549	0.0
5	0.16791044776119401	1.3166640625004302	-1.0549375000005727	0.0	1.0961367187499993	-0.9895751953125	0.0	0.8876249999843355	-0.8451679687537712	0.0			0.0	0.531649658203125	-0.6760112304687499	0.0	0.8820671386718115	-0.6808527832031527	0.0			0.0	1.6133437500000696	-1.0019589843750099	0.0	2.016284112461034	-0.8723464174248122	0.0			0.0	0.8820671386718751	-0.5317695312500003	0.0	0.7186593623847152	-0.6988779785302952	0.0	1.375857421875	-0.5512734375000002	0.0	0.8461568611917691	-0.9255073975425848	0.0	0.8286992603650394	-0.49171521186748435	0.0	0.8350076268547789	-0.75447114508232	0.0	0.55638910302141	-1.0213762532556927	0.0	0.2605707389794267	-1.0598994739501113	0.0	0.7449043275302918	-1.003357486192322	0.0	1.1614236257541235	-0.9699044523817265	0.0	1.2313124063835643	-1.0476019542986423	0.0	0.7932621597621127	-1.0652021253902098	0.0
6	0.20149253731343283	1.3166640625003199	-1.0549375000004115	0.0	1.0961367187499993	-0.9895751953125	0.0	0.8876249999759998	-0.8451679687557782	0.0			0.0	0.531649658203125	-0.6760112304687499	0.0	0.8820671386717687	-0.680852783203171	0.0			0.0	1.6133437499992358	-1.0019589843748955	0.0	2.018525585511969	-0.868123775877535	0.0			0.0	0.8820671386718751	-0.5317695312500003	0.0	0.7186136825185032	-0.6991424903554994	0.0	1.375857421875	-0.5512734375000002	0.0	0.8707736275870235	-0.9228431812300651	0.0	0.8495435707125863	-0.48342633283156716	0.0	0.8545651342947136	-0.7466138514213514	0.0	0.5811539436919967	-1.0235217799744816	0.0	0.2589643683059447	-1.0600806223208803	0.0	0.7449237412596782	-1.0033787224007105	0.0	1.1944705676015148	-0.9673331820081175	0.0	1.2713654632377487	-1.0454608344465557	0.0	0.794008733225375	-1.065211166581042	0.0
7	0.23507462686567165	1.316664062499843	-1.054937499999752	0.0	1.0961367187499993	-0.9895751953125	0.0	0.8876249999714941	-0.845167968756863	0.0			0.0	0.531649658203125	-0.6760112304687499	0.0	0.8820671386717345	-0.6808527832031855	0.0			0.0	1.6133437499977155	-1.0019589843746868	0.0	2.0209703840820685	-0.8647458557078186	0.0			0.0	0.8820671386718751	-0.5317695312500003	0.0	0.7185840512212504	-0.6993673189596123	0.0	1.375857421875	-0.5512734375000002	0.0	0.9275068741091299	-0.9138141225302636	0.0	0.8959483146163638	-0.46306763127661993	0.0	0.8979627462517675	-0.7262806867521763	0.0	0.6404128014786463	-1.0273612809269517	0.0	0.26034999258282493	-1.0604501580263856	0.0	0.7448845928604658	-1.0033354560998082	0.0	1.2708455657349575	-0.9595920259175627	0.0	1.3638865243346319	-1.0415933076719877	0.0	0.7940146007148536	-1.0652115468754304	0.0
8	0.26865671641791045	1.31666406249879	-1.0549374999983165	0.0	1.0961367187499993	-0.9895751953125	0.0	0.8876249999792118	-0.8451679687550049	0.0			0.0	0.531649658203125	-0.6760112304687499	0.0	0.8820671386717437	-0.6808527832031815	0.0			0.0	1.6133437499955254	-1.001958984374386	0.0	2.0230195915059	-0.8622428914805993	0.0			0.0	0.8820671386718751	-0.5317695312500003	0.0	0.7185504915730749	-0.6996124000473564	0.0	1.375857421875	-0.5512734375000002	0.0	0.9988390721885476	-0.9014692130857292	0.0	0.9537992755845206	-0.436688400130059	0.0	0.9520136746967471	-0.6999005583621314	0.0	0.7157051581745588	-1.0316601136441863	0.0	0.2676510327309365	-1.061208715820512	0.0	0.7448311912698504	-1.0032770172072611	0.0	1.3669103337760773	-0.9492638063476856	0.0	1.4802244906986417	-1.0371195465315308	0.0	0.7937360595822415	-1.0652082034301404	0.0
9	0.30223880597014924	1.3166640624970298	-1.0549374999959393	0.0	1.0961367187499993	-0.9895751953125	0.0	0.8876250000114958	-0.8451679687472321	0.0			0.0	0.531649658203125	-0.6760112304687499	0.0	0.8820671386718519	-0.6808527832031352	0.0			0.0	1.6133437499931447	-1.0019589843740588	0.0	2.0243589282312344	-0.8605440534637934	0.0			0.0	0.8820671386718751	-0.5317695312500003	0.0	0.7184671352421067	-0.7000098685313622	0.0	1.375857421875	-0.5512734375000002	0.0	1.0608592085844395	-0.890395866589752	0.0	1.003893724170423	-0.4128142552008013	0.0	0.9988524844996732	-0.6768029634903019	0.0	0.7816275140710384	-1.0350774654366104	0.0	0.2843660592771925	-1.0624592580917431	0.0	0.7447853649392154	-1.003227979432531	0.0	1.450425909735722	-0.9402278599917409	0.0	1.5814335370657377	-1.033493458373678	0.0	0.7934423071672263	-1.065203710837151	0.0
